<?xml version="1.0" encoding="UTF-8" standalone="no"?>
<!-- Created with Inkscape (http://www.inkscape.org/) -->

<svg
   id="svg5"
   version="1.1"
   viewBox="0 0 88.9 40.640001"
   height="1.6in"
   width="3.5in"
   sodipodi:docname="longitudinal_ter.svg"
   inkscape:version="1.1.2 (0a00cf5339, 2022-02-04)"
   xmlns:inkscape="http://www.inkscape.org/namespaces/inkscape"
   xmlns:sodipodi="http://sodipodi.sourceforge.net/DTD/sodipodi-0.dtd"
   xmlns="http://www.w3.org/2000/svg"
   xmlns:svg="http://www.w3.org/2000/svg">
  <sodipodi:namedview
     id="namedview7"
     pagecolor="#ffffff"
     bordercolor="#666666"
     borderopacity="1.0"
     inkscape:pageshadow="2"
     inkscape:pageopacity="0.0"
     inkscape:pagecheckerboard="0"
     inkscape:document-units="mm"
     showgrid="false"
     units="in"
     width="5in"
     inkscape:zoom="3.1108586"
     inkscape:cx="79.720757"
     inkscape:cy="43.717834"
     inkscape:window-width="2552"
     inkscape:window-height="1339"
     inkscape:window-x="4"
     inkscape:window-y="60"
     inkscape:window-maximized="0"
     inkscape:current-layer="layer2"
     inkscape:snap-smooth-nodes="true"
     inkscape:object-paths="true"
     inkscape:snap-object-midpoints="true" />
  <defs
     id="defs2">
    <marker
       style="overflow:visible"
       id="Arrow1Mend"
       refX="0"
       refY="0"
       orient="auto"
       inkscape:stockid="Arrow1Mend"
       inkscape:isstock="true">
      <path
         transform="matrix(-0.4,0,0,-0.4,-4,0)"
         style="fill:context-stroke;fill-rule:evenodd;stroke:context-stroke;stroke-width:1pt"
         d="M 0,0 5,-5 -12.5,0 5,5 Z"
         id="path4127" />
    </marker>
    <marker
       style="overflow:visible"
       id="Arrow2Lend"
       refX="0"
       refY="0"
       orient="auto"
       inkscape:stockid="Arrow2Lend"
       inkscape:isstock="true">
      <path
         transform="matrix(-1.1,0,0,-1.1,-1.1,0)"
         d="M 8.7185878,4.0337352 -2.2072895,0.01601326 8.7185884,-4.0017078 c -1.7454984,2.3720609 -1.7354408,5.6174519 -6e-7,8.035443 z"
         style="fill:context-stroke;fill-rule:evenodd;stroke:context-stroke;stroke-width:0.625;stroke-linejoin:round"
         id="path4139" />
    </marker>
    <marker
       style="overflow:visible"
       id="Arrow1Mend-1"
       refX="0"
       refY="0"
       orient="auto"
       inkscape:stockid="Arrow1Mend"
       inkscape:isstock="true">
      <path
         transform="matrix(-0.4,0,0,-0.4,-4,0)"
         style="fill:context-stroke;fill-rule:evenodd;stroke:context-stroke;stroke-width:1pt"
         d="M 0,0 5,-5 -12.5,0 5,5 Z"
         id="path4127-8" />
    </marker>
    <marker
       style="overflow:visible"
       id="marker1119"
       refX="0"
       refY="0"
       orient="auto"
       inkscape:stockid="Arrow1Mend"
       inkscape:isstock="true">
      <path
         transform="matrix(-0.4,0,0,-0.4,-4,0)"
         style="fill:context-stroke;fill-rule:evenodd;stroke:context-stroke;stroke-width:1pt"
         d="M 0,0 5,-5 -12.5,0 5,5 Z"
         id="path1117" />
    </marker>
    <marker
       style="overflow:visible"
       id="Arrow1Mend-1-6"
       refX="0"
       refY="0"
       orient="auto"
       inkscape:stockid="Arrow1Mend"
       inkscape:isstock="true">
      <path
         transform="matrix(-0.4,0,0,-0.4,-4,0)"
         style="fill:context-stroke;fill-rule:evenodd;stroke:context-stroke;stroke-width:1pt"
         d="M 0,0 5,-5 -12.5,0 5,5 Z"
         id="path4127-8-7" />
    </marker>
    <marker
       style="overflow:visible"
       id="marker53211"
       refX="0"
       refY="0"
       orient="auto"
       inkscape:stockid="Arrow1Mend"
       inkscape:isstock="true">
      <path
         transform="matrix(-0.4,0,0,-0.4,-4,0)"
         style="fill:context-stroke;fill-rule:evenodd;stroke:context-stroke;stroke-width:1pt"
         d="M 0,0 5,-5 -12.5,0 5,5 Z"
         id="path53209" />
    </marker>
  </defs>
  <g
     inkscape:label="Livello 1"
     inkscape:groupmode="layer"
     id="layer1"
     style="display:inline">
    <path
       style="fill:none;fill-opacity:1;stroke:#ff0000;stroke-width:0.3;stroke-opacity:1;stroke-miterlimit:4;stroke-dasharray:none"
       d="m 2.9782,20.5888 h 83.909 M 9.97062,38.847 V 2.3306 M 2.9782,5.81763 C 3.11875,5.6821 3.2593,5.55009 3.39985,5.42172 3.5404,5.29334 3.68095,5.1686 3.8215,5.04757 3.96205,4.92654 4.10261,4.80923 4.24316,4.69573 4.38371,4.58222 4.52426,4.47252 4.66481,4.3667 4.80536,4.26088 4.94591,4.15894 5.08646,4.06096 5.22702,3.96298 5.36757,3.86895 5.50812,3.77894 5.64867,3.68893 5.78922,3.60295 5.92977,3.52105 6.07032,3.43915 6.21087,3.36133 6.35142,3.28766 6.49198,3.21398 6.63253,3.14445 6.77308,3.0791 6.91363,3.01375 7.05418,2.9526 7.19473,2.89568 7.33528,2.83875 7.47583,2.78606 7.61638,2.73765 7.75694,2.68923 7.89749,2.64508 8.03804,2.60524 8.17859,2.5654 8.31914,2.52986 8.45969,2.49865 8.60024,2.46744 8.74079,2.44055 8.88135,2.41802 9.0219,2.39549 9.16245,2.3773 9.303,2.36347 9.44355,2.34965 9.5841,2.34019 9.72465,2.33509 9.8652,2.32999 10.0058,2.32927 10.1463,2.33291 c 0.1406,0.00364 0.2811,0.01164 0.4217,0.02402 0.1405,0.01237 0.2811,0.0291 0.4216,0.05019 0.1406,0.02108 0.2811,0.04651 0.4217,0.07628 0.1405,0.02977 0.2811,0.06387 0.4216,0.10228 0.1406,0.0384 0.2811,0.08112 0.4217,0.12811 0.1405,0.047 0.2811,0.09827 0.4216,0.15378 0.1406,0.05551 0.2811,0.11526 0.4217,0.17921 0.1405,0.06395 0.2811,0.13209 0.4216,0.20439 0.1406,0.07229 0.2811,0.14873 0.4217,0.22927 0.1405,0.08054 0.2811,0.16517 0.4216,0.25383 0.1406,0.08867 0.2811,0.18136 0.4217,0.27803 0.1405,0.09666 0.2811,0.19729 0.4216,0.30182 0.1406,0.10452 0.2811,0.21294 0.4217,0.32517 0.1406,0.11224 0.2811,0.22829 0.4217,0.34808 0.1405,0.11978 0.2811,0.2433 0.4216,0.37046 0.1406,0.12717 0.2811,0.25797 0.4217,0.39233 0.1405,0.13436 0.2811,0.27227 0.4216,0.41363 0.1406,0.14136 0.2811,0.28617 0.4217,0.43433 0.1405,0.14816 0.2811,0.29967 0.4216,0.45441 0.1406,0.15475 0.2811,0.31274 0.4217,0.47385 0.1405,0.16111 0.2811,0.32534 0.4216,0.49259 0.1406,0.16724 0.2811,0.3375 0.4217,0.51063 0.1405,0.17314 0.2811,0.34917 0.4216,0.52795 0.1406,0.17878 0.2811,0.36033 0.4217,0.5445 0.1405,0.18417 0.2811,0.37097 0.4216,0.56025 0.1406,0.1893 0.2811,0.3811 0.4217,0.5752 0.1405,0.1942 0.2811,0.3907 0.4216,0.5894 0.1406,0.1987 0.2812,0.3997 0.4217,0.6027 0.1406,0.203 0.2811,0.4081 0.4217,0.6151 0.1405,0.207 0.2811,0.4159 0.4216,0.6266 0.1406,0.2107 0.2811,0.4232 0.4217,0.6373 0.1405,0.2141 0.2811,0.4298 0.4216,0.647 0.1406,0.2172 0.2811,0.4359 0.4217,0.6559 0.1405,0.2199 0.2811,0.4412 0.4216,0.6636 0.1406,0.2225 0.2811,0.4461 0.4217,0.6706 0.1405,0.2246 0.2811,0.4502 0.4216,0.6766 0.1406,0.2264 0.2811,0.4536 0.4217,0.6815 0.1405,0.2279 0.2811,0.4565 0.4216,0.6855 0.1406,0.2291 0.2811,0.4586 0.4217,0.6886 0.1405,0.2299 0.2811,0.4601 0.4216,0.6905 0.1406,0.2304 0.2811,0.461 0.4217,0.6916 0.1405,0.2306 0.2811,0.4612 0.4217,0.6916 0.1405,0.2305 0.2811,0.4607 0.4216,0.6907 0.1406,0.23 0.2811,0.4596 0.4217,0.6887 0.1405,0.2292 0.2811,0.4578 0.4216,0.6858 0.1406,0.2281 0.2811,0.4554 0.4217,0.6819 0.1405,0.2266 0.2811,0.4523 0.4216,0.677 0.1406,0.2248 0.2811,0.4485 0.4217,0.6712 0.1405,0.2226 0.2811,0.4441 0.4216,0.6643 0.1406,0.2201 0.2811,0.439 0.4217,0.6565 0.1405,0.2174 0.2811,0.4334 0.4216,0.6478 0.1406,0.2143 0.2811,0.4271 0.4217,0.6381 0.1405,0.211 0.2811,0.4202 0.4216,0.6276 0.1406,0.2073 0.2811,0.4127 0.4217,0.6161 0.1405,0.2033 0.2811,0.4046 0.4216,0.6037 0.1406,0.1991 0.2811,0.396 0.4217,0.5905 0.1406,0.1945 0.2811,0.3867 0.4217,0.5765 0.1405,0.1897 0.2811,0.3769 0.4216,0.5615 0.1406,0.1846 0.2811,0.3666 0.4217,0.5458 0.1405,0.1793 0.2811,0.3558 0.4216,0.5294 0.1406,0.1736 0.2811,0.3444 0.4217,0.5121 0.1405,0.1677 0.2811,0.3325 0.4216,0.4941 0.1406,0.1617 0.2811,0.3202 0.4217,0.4755 0.1405,0.1552 0.2811,0.3073 0.4216,0.456 0.1406,0.1487 0.2811,0.2941 0.4217,0.436 0.1405,0.142 0.2811,0.2805 0.4216,0.4154 0.1406,0.135 0.2811,0.2664 0.4217,0.3941 0.1405,0.1278 0.2811,0.2519 0.4216,0.3723 0.1406,0.1205 0.2811,0.2371 0.4217,0.35 0.1405,0.1129 0.2811,0.2219 0.4216,0.3271 0.1406,0.1052 0.2812,0.2065 0.4217,0.3038 0.1406,0.0973 0.2811,0.1907 0.4217,0.28 0.1405,0.0894 0.2811,0.1747 0.4216,0.2559 0.1406,0.0812 0.2811,0.1583 0.4217,0.2313 0.1405,0.073 0.2811,0.1418 0.4216,0.2065 0.1406,0.0646 0.2811,0.1251 0.4217,0.1813 0.1405,0.0562 0.2811,0.1082 0.4216,0.1559 0.1406,0.0477 0.2811,0.0911 0.4217,0.1303 0.1405,0.0391 0.2811,0.0739 0.4216,0.1044 0.1406,0.0305 0.2811,0.0567 0.4217,0.0785 0.1405,0.0218 0.2811,0.0392 0.4216,0.0523 0.1406,0.0131 0.2811,0.0219 0.4217,0.0262 0.1405,0.0044 0.2811,0.0044 0.4216,0 0.1406,-0.0043 0.2811,-0.0131 0.4217,-0.0262 0.1405,-0.0131 0.2811,-0.0305 0.4217,-0.0523 0.1405,-0.0218 0.2811,-0.048 0.4216,-0.0785 0.1406,-0.0305 0.2811,-0.0653 0.4217,-0.1044 0.1405,-0.0392 0.2811,-0.0826 0.4216,-0.1303 0.1406,-0.0477 0.2811,-0.0997 0.4217,-0.1559 0.1405,-0.0562 0.2811,-0.1167 0.4216,-0.1813 0.1406,-0.0647 0.2811,-0.1335 0.4217,-0.2065 0.1405,-0.073 0.2811,-0.1501 0.4216,-0.2313 0.1406,-0.0812 0.2811,-0.1666 0.4217,-0.2559 0.1405,-0.0893 0.2811,-0.1827 0.4216,-0.28 0.1406,-0.0973 0.2811,-0.1986 0.4217,-0.3038 0.1405,-0.1052 0.2811,-0.2142 0.4216,-0.3271 0.1406,-0.1129 0.2811,-0.2295 0.4217,-0.35 0.1405,-0.1204 0.2811,-0.2445 0.4216,-0.3723 0.1406,-0.1277 0.2811,-0.2591 0.4217,-0.3941 0.1406,-0.1349 0.2811,-0.2734 0.4217,-0.4154 0.1405,-0.1419 0.2811,-0.2873 0.4216,-0.436 0.1406,-0.1487 0.2811,-0.3008 0.4217,-0.4561 0.1405,-0.1552 0.2811,-0.3138 0.4216,-0.4754 0.1406,-0.1616 0.2811,-0.3264 0.4217,-0.4941 0.1405,-0.1678 0.2811,-0.3385 0.4216,-0.5121 0.1406,-0.1736 0.2811,-0.3501 0.4217,-0.5294 0.1405,-0.1792 0.2811,-0.3612 0.4216,-0.5458 0.1406,-0.1846 0.2811,-0.3718 0.4217,-0.5616 0.1405,-0.1897 0.2811,-0.3819 0.4216,-0.5764 0.1406,-0.1945 0.2811,-0.3914 0.4217,-0.5905 0.1405,-0.1991 0.2811,-0.4004 0.4216,-0.6037 0.1406,-0.2034 0.2811,-0.4088 0.4217,-0.6161 0.1405,-0.2074 0.2811,-0.4166 0.4216,-0.6276 0.1406,-0.211 0.2812,-0.4238 0.4217,-0.6381 0.1406,-0.2144 0.2811,-0.4304 0.4217,-0.6478 0.1405,-0.2175 0.2811,-0.4364 0.4216,-0.6565 0.1406,-0.2202 0.2811,-0.4417 0.4217,-0.6643 0.1405,-0.2227 0.2811,-0.4464 0.4216,-0.6712 0.1406,-0.2247 0.2811,-0.4504 0.4217,-0.677 0.1405,-0.2265 0.2811,-0.4539 0.4216,-0.6819 0.1406,-0.228 0.2811,-0.4566 0.4217,-0.6858 0.1405,-0.2291 0.2811,-0.4587 0.4216,-0.6887 0.1406,-0.23 0.2811,-0.4602 0.4217,-0.6907 0.1405,-0.2304 0.2811,-0.461 0.4216,-0.6916 0.1406,-0.2306 0.2811,-0.4612 0.4217,-0.6916 0.1405,-0.2304 0.2811,-0.4606 0.4216,-0.6906 0.1406,-0.2299 0.2811,-0.4594 0.4217,-0.6885 0.1405,-0.229 0.2811,-0.4576 0.4217,-0.6855 0.1405,-0.2279 0.2811,-0.4551 0.4216,-0.6815 0.1406,-0.2264 0.2811,-0.452 0.4217,-0.6766 0.1405,-0.2245 0.2811,-0.4481 0.4216,-0.6706 0.1406,-0.2224 0.2811,-0.4437 0.4217,-0.6636 0.1405,-0.22 0.2811,-0.4387 0.4216,-0.6559 0.1406,-0.2172 0.2811,-0.4329 0.4217,-0.647 0.1405,-0.2141 0.2811,-0.4266 0.4216,-0.6373 0.1406,-0.2107 0.2811,-0.4196 0.4217,-0.6266 0.1405,-0.207 0.2811,-0.4121 0.4216,-0.6151 0.1406,-0.203 0.2811,-0.404 0.4217,-0.6027 0.1405,-0.1987 0.2811,-0.3952 0.4216,-0.5894 0.1406,-0.1941 0.2811,-0.3859 0.4217,-0.5752 C 69.3183,9.97302 69.4589,9.78622 69.5994,9.60204 69.74,9.41787 69.8805,9.23633 70.0211,9.05755 70.1617,8.87876 70.3022,8.70274 70.4428,8.5296 70.5833,8.35646 70.7239,8.18621 70.8644,8.01897 71.005,7.85172 71.1455,7.68749 71.2861,7.52637 71.4266,7.36526 71.5672,7.20728 71.7077,7.05253 71.8483,6.89778 71.9888,6.74628 72.1294,6.59812 72.2699,6.44996 72.4105,6.30515 72.551,6.16379 72.6916,6.02243 72.8321,5.88452 72.9727,5.75016 73.1132,5.6158 73.2538,5.48499 73.3943,5.35783 73.5349,5.23067 73.6754,5.10715 73.816,4.98737 73.9565,4.86758 74.0971,4.75153 74.2376,4.63929 74.3782,4.52706 74.5187,4.41864 74.6593,4.31412 74.7998,4.20959 74.9404,4.10896 75.0809,4.0123 75.2215,3.91563 75.362,3.82294 75.5026,3.73427 75.6431,3.64561 75.7837,3.56098 75.9242,3.48044 76.0648,3.3999 76.2054,3.32346 76.3459,3.25117 76.4865,3.17887 76.627,3.11072 76.7676,3.04678 76.9081,2.98283 77.0487,2.92308 77.1892,2.86757 77.3298,2.81206 77.4703,2.76079 77.6109,2.71379 77.7514,2.6668 77.892,2.62408 78.0325,2.58568 78.1731,2.54727 78.3136,2.51317 78.4542,2.4834 78.5947,2.45363 78.7353,2.4282 78.8758,2.40712 79.0164,2.38603 79.1569,2.3693 79.2975,2.35693 79.438,2.34455 79.5786,2.33655 79.7191,2.33291 c 0.1406,-0.00364 0.2811,-0.00292 0.4217,0.00218 0.1405,0.0051 0.2811,0.01456 0.4216,0.02839 0.1406,0.01382 0.2811,0.03201 0.4217,0.05454 0.1405,0.02253 0.2811,0.04942 0.4216,0.08063 0.1406,0.03121 0.2811,0.06675 0.4217,0.10659 0.1405,0.03984 0.2811,0.08399 0.4217,0.13241 0.1405,0.04841 0.2811,0.1011 0.4216,0.15803 0.1406,0.05692 0.2811,0.11808 0.4217,0.18342 0.1405,0.06535 0.2811,0.13488 0.4216,0.20856 0.1406,0.07368 0.2811,0.15149 0.4217,0.23339 0.1405,0.0819 0.2811,0.16789 0.4216,0.25789 0.1406,0.09001 0.2811,0.18404 0.4217,0.28202 0.1405,0.09799 0.2811,0.19992 0.4216,0.30574 0.1406,0.10582 0.2811,0.21553 0.4217,0.32903 0.1405,0.11351 0.2811,0.23081 0.4216,0.35184 0.1406,0.12103 0.2811,0.24577 0.4217,0.37415 0.1405,0.12837 0.2811,0.26038 0.4216,0.39592"
       title="cos(x)"
       id="path4296" />
  </g>
  <g
     inkscape:groupmode="layer"
     id="layer2"
     inkscape:label="Livello 2">
    <path
       style="display:inline;fill:none;fill-opacity:0.443073;stroke:#000000;stroke-width:0.4318;stroke-opacity:1"
       d="m 2.9782,20.5888 h 83.909 M 9.97062,38.847 V 2.3306 M 2.9782,31.3207 c 0.14055,-0.1865 0.2811,-0.3757 0.42165,-0.5672 0.14055,-0.1916 0.2811,-0.3856 0.42165,-0.5818 0.14055,-0.1963 0.28111,-0.3949 0.42166,-0.5956 0.14055,-0.2007 0.2811,-0.4036 0.42165,-0.6085 0.14055,-0.2049 0.2811,-0.4117 0.42165,-0.6205 0.14056,-0.2087 0.28111,-0.4193 0.42166,-0.6316 0.14055,-0.2123 0.2811,-0.4263 0.42165,-0.6419 0.14055,-0.2155 0.2811,-0.4326 0.42165,-0.6511 0.14056,-0.2186 0.28111,-0.4385 0.42166,-0.6596 0.14055,-0.2211 0.2811,-0.4435 0.42165,-0.667 0.14055,-0.2234 0.2811,-0.448 0.42165,-0.6734 0.14056,-0.2255 0.28111,-0.4518 0.42166,-0.679 0.14055,-0.2271 0.2811,-0.455 0.42165,-0.6834 0.14055,-0.2285 0.2811,-0.4576 0.42166,-0.687 0.14055,-0.2295 0.2811,-0.4594 0.42165,-0.6896 0.14055,-0.2302 0.2811,-0.4606 0.42165,-0.6912 0.14055,-0.2305 0.28115,-0.4611 0.42165,-0.6917 0.1406,-0.2306 0.2811,-0.4611 0.4217,-0.6913 0.1405,-0.2303 0.2811,-0.4603 0.4216,-0.6899 0.1406,-0.2297 0.2811,-0.4589 0.4217,-0.6876 0.1405,-0.2286 0.2811,-0.4567 0.4216,-0.6841 0.1406,-0.2274 0.2811,-0.454 0.4217,-0.6798 0.1405,-0.2257 0.2811,-0.4506 0.4216,-0.6744 0.1406,-0.2238 0.2811,-0.4466 0.4217,-0.6681 0.1405,-0.2215 0.2811,-0.4419 0.4216,-0.6608 0.1406,-0.219 0.2811,-0.4366 0.4217,-0.6527 0.1405,-0.2161 0.2811,-0.4306 0.4216,-0.6435 0.1406,-0.2128 0.2811,-0.424 0.4217,-0.6334 0.1405,-0.2093 0.2811,-0.4168 0.4216,-0.6224 0.1406,-0.2055 0.2811,-0.4091 0.4217,-0.6105 0.1406,-0.2015 0.2811,-0.4008 0.4217,-0.5978 0.1405,-0.197 0.2811,-0.3918 0.4216,-0.5842 0.1406,-0.1923 0.2811,-0.3823 0.4217,-0.56969 0.1405,-0.1874 0.2811,-0.37226 0.4216,-0.55444 C 17.455,9.21379 17.5955,9.03428 17.7361,8.85759 17.8766,8.68089 18.0172,8.507 18.1577,8.33605 18.2983,8.16509 18.4388,7.99707 18.5794,7.83209 18.7199,7.66712 18.8605,7.5052 19.001,7.34645 19.1416,7.1877 19.2821,7.03212 19.4227,6.87981 19.5632,6.72751 19.7038,6.57849 19.8443,6.43286 19.9849,6.28722 20.1254,6.14498 20.266,6.00622 20.4065,5.86746 20.5471,5.73219 20.6876,5.60051 20.8282,5.46883 20.9687,5.34073 21.1093,5.21632 21.2498,5.0919 21.3904,4.97116 21.5309,4.85419 21.6715,4.73721 21.8121,4.62401 21.9526,4.51464 22.0932,4.40528 22.2337,4.29977 22.3743,4.19817 22.5148,4.09658 22.6554,3.99891 22.7959,3.90523 22.9365,3.81155 23.077,3.72186 23.2176,3.63623 23.3581,3.5506 23.4987,3.46903 23.6392,3.39157 23.7798,3.31411 23.9203,3.24076 24.0609,3.17159 24.2014,3.10241 24.342,3.0374 24.4825,2.97661 c 0.1406,-0.0608 0.2811,-0.11738 0.4217,-0.1697 0.1405,-0.05233 0.2811,-0.1004 0.4216,-0.14418 0.1406,-0.04378 0.2811,-0.08327 0.4217,-0.11844 0.1405,-0.03518 0.2811,-0.06603 0.4216,-0.09255 0.1406,-0.02651 0.2811,-0.04869 0.4217,-0.06651 0.1405,-0.01782 0.2811,-0.03128 0.4216,-0.04038 0.1406,-0.0091 0.2811,-0.01383 0.4217,-0.0142 0.1405,-3.6e-4 0.2811,0.00364 0.4217,0.01202 0.1405,0.00837 0.2811,0.0211 0.4216,0.0382 0.1406,0.01709 0.2811,0.03854 0.4217,0.06433 0.1405,0.0258 0.2811,0.05593 0.4216,0.09038 0.1406,0.03446 0.2811,0.07323 0.4217,0.1163 0.1405,0.04306 0.2811,0.09042 0.4216,0.14204 0.1406,0.05161 0.2811,0.10749 0.4217,0.16758 0.1405,0.06009 0.2811,0.1244 0.4216,0.19288 0.1406,0.06848 0.2811,0.14114 0.4217,0.21791 0.1405,0.07677 0.2811,0.15766 0.4216,0.24262 0.1406,0.08495 0.2811,0.17397 0.4217,0.26698 0.1405,0.09302 0.2811,0.19003 0.4216,0.29097 0.1406,0.10094 0.2811,0.2058 0.4217,0.31452 0.1405,0.10872 0.2811,0.2213 0.4216,0.33764 0.1406,0.11635 0.2811,0.23647 0.4217,0.36027 0.1406,0.1238 0.2811,0.25129 0.4217,0.38238 0.1405,0.13108 0.2811,0.26576 0.4216,0.40393 0.1406,0.13818 0.2811,0.27985 0.4217,0.42492 0.1405,0.14507 0.2811,0.29353 0.4216,0.44529 0.1406,0.15175 0.2811,0.3068 0.4217,0.46502 0.1405,0.15822 0.2811,0.31962 0.4216,0.48409 0.1406,0.16446 0.2811,0.33198 0.4217,0.50245 0.1405,0.17047 0.2811,0.34388 0.4216,0.5201 0.1406,0.17623 0.2811,0.35528 0.4217,0.53701 0.1405,0.18173 0.2811,0.36616 0.4216,0.55314 0.1406,0.18698 0.2811,0.37648 0.4217,0.56848 0.1405,0.1919 0.2811,0.3863 0.4216,0.583 0.1406,0.1966 0.2811,0.3956 0.4217,0.5967 0.1405,0.201 0.2811,0.4043 0.4216,0.6095 0.1406,0.2052 0.2812,0.4124 0.4217,0.6214 0.1406,0.2091 0.2811,0.42 0.4217,0.6326 0.1405,0.2125 0.2811,0.4268 0.4216,0.6426 0.1406,0.2158 0.2811,0.4332 0.4217,0.6519 0.1405,0.2188 0.2811,0.4389 0.4216,0.6602 0.1406,0.2214 0.2811,0.444 0.4217,0.6676 0.1405,0.2236 0.2811,0.4483 0.4216,0.6739 0.1406,0.2256 0.2811,0.4521 0.4217,0.6794 0.1405,0.2272 0.2811,0.4552 0.4216,0.6838 0.1406,0.2286 0.2811,0.4577 0.4217,0.6873 0.1405,0.2295 0.2811,0.4595 0.4216,0.6897 0.1406,0.2302 0.2811,0.4607 0.4217,0.6913 0.1405,0.2305 0.2811,0.4611 0.4216,0.6917 0.1406,0.2305 0.2811,0.461 0.4217,0.6912 0.1405,0.2302 0.2811,0.4602 0.4217,0.6898 0.1405,0.2295 0.2811,0.4587 0.4216,0.6872 0.1406,0.2286 0.2811,0.4566 0.4217,0.6839 0.1405,0.2272 0.2811,0.4537 0.4216,0.6793 0.1406,0.2256 0.2811,0.4503 0.4217,0.674 0.1405,0.2236 0.2811,0.4462 0.4216,0.6675 0.1406,0.2213 0.2811,0.4415 0.4217,0.6602 0.1405,0.2187 0.2811,0.4361 0.4216,0.6519 0.1406,0.2158 0.2811,0.4301 0.4217,0.6427 0.1405,0.2126 0.2811,0.4235 0.4216,0.6325 0.1406,0.2091 0.2811,0.4163 0.4217,0.6215 0.1405,0.2052 0.2811,0.4084 0.4216,0.6095 0.1406,0.2011 0.2811,0.4 0.4217,0.5967 0.1405,0.1966 0.2811,0.391 0.4216,0.5829 0.1406,0.192 0.2811,0.3815 0.4217,0.5685 0.1406,0.187 0.2811,0.3714 0.4217,0.5532 0.1405,0.1817 0.2811,0.3607 0.4216,0.537 0.1406,0.1762 0.2811,0.3496 0.4217,0.5201 0.1405,0.1704 0.2811,0.338 0.4216,0.5024 0.1406,0.1645 0.2811,0.3259 0.4217,0.4841 0.1405,0.1582 0.2811,0.3133 0.4216,0.465 0.1406,0.1518 0.2811,0.3003 0.4217,0.4453 0.1405,0.1451 0.2811,0.2868 0.4216,0.4249 0.1406,0.1382 0.2811,0.2729 0.4217,0.404 0.1405,0.1311 0.2811,0.2585 0.4216,0.3823 0.1406,0.1239 0.2811,0.244 0.4217,0.3603 0.1405,0.1164 0.2811,0.2289 0.4216,0.3377 0.1406,0.1087 0.2811,0.2135 0.4217,0.3145 0.1405,0.1009 0.2811,0.1979 0.4216,0.2909 0.1406,0.0931 0.2812,0.1821 0.4217,0.267 0.1406,0.085 0.2811,0.1659 0.4217,0.2427 0.1405,0.0767 0.2811,0.1494 0.4216,0.2179 0.1406,0.0684 0.2811,0.1327 0.4217,0.1928 0.1405,0.0601 0.2811,0.116 0.4216,0.1676 0.1406,0.0516 0.2811,0.099 0.4217,0.1421 0.1405,0.043 0.2811,0.0818 0.4216,0.1163 0.1406,0.0344 0.2811,0.0645 0.4217,0.0903 0.1405,0.0258 0.2811,0.0473 0.4216,0.0644 0.1406,0.0171 0.2811,0.0298 0.4217,0.0382 0.1405,0.0083 0.2811,0.0123 0.4216,0.012 0.1406,-4e-4 0.2811,-0.0051 0.4217,-0.0142 0.1405,-0.0091 0.2811,-0.0226 0.4216,-0.0404 0.1406,-0.0178 0.2811,-0.04 0.4217,-0.0665 0.1405,-0.0265 0.2811,-0.0574 0.4217,-0.0925 0.1405,-0.0352 0.2811,-0.0747 0.4216,-0.1185 0.1406,-0.0438 0.2811,-0.0918 0.4217,-0.1442 0.1405,-0.0523 0.2811,-0.1089 0.4216,-0.1697 0.1406,-0.0608 0.2811,-0.1258 0.4217,-0.195 0.1405,-0.0691 0.2811,-0.1425 0.4216,-0.2199 0.1406,-0.0775 0.2811,-0.1591 0.4217,-0.2447 0.1405,-0.0856 0.2811,-0.1753 0.4216,-0.269 0.1406,-0.0937 0.2811,-0.1913 0.4217,-0.2929 0.1405,-0.1016 0.2811,-0.2071 0.4216,-0.3165 0.1406,-0.1094 0.2811,-0.2226 0.4217,-0.3396 0.1405,-0.1169 0.2811,-0.2377 0.4216,-0.3621 0.1406,-0.1244 0.2811,-0.2525 0.4217,-0.3842 0.1405,-0.1317 0.2811,-0.2669 0.4216,-0.4057 0.1406,-0.1387 0.2811,-0.281 0.4217,-0.4266 0.1406,-0.1457 0.2811,-0.2947 0.4217,-0.447 0.1405,-0.1523 0.2811,-0.3079 0.4216,-0.4666 0.1406,-0.1588 0.2811,-0.3207 0.4217,-0.4857 0.1405,-0.1649 0.2811,-0.333 0.4216,-0.5039 0.1406,-0.171 0.2811,-0.3449 0.4217,-0.5216 0.1405,-0.1766 0.2811,-0.3562 0.4216,-0.5383 0.1406,-0.1822 0.2811,-0.3671 0.4217,-0.5545 0.1405,-0.1874 0.2811,-0.3773 0.4216,-0.5697 0.1406,-0.1924 0.2811,-0.3871 0.4217,-0.5842 0.1405,-0.197 0.2811,-0.3963 0.4216,-0.5977 0.1406,-0.2015 0.2811,-0.405 0.4217,-0.6106 0.1405,-0.2055 0.2811,-0.413 0.4216,-0.6224 0.1406,-0.2094 0.2811,-0.4205 0.4217,-0.6334 0.1405,-0.2129 0.2811,-0.4274 0.4216,-0.6435 0.1406,-0.2161 0.2812,-0.4337 0.4217,-0.6526 0.1406,-0.219 0.2811,-0.4393 0.4217,-0.6609 0.1405,-0.2215 0.2811,-0.4443 0.4216,-0.6681 0.1406,-0.2238 0.2811,-0.4487 0.4217,-0.6744 0.1405,-0.2258 0.2811,-0.4524 0.4216,-0.6798 0.1406,-0.2273 0.2811,-0.4554 0.4217,-0.6841 0.1405,-0.2287 0.2811,-0.4579 0.4216,-0.6875 0.1406,-0.2297 0.2811,-0.4597 0.4217,-0.6899 0.1405,-0.2303 0.2811,-0.4608 0.4216,-0.6914 0.1406,-0.2305 0.2811,-0.4612 0.4217,-0.6917 0.1405,-0.2305 0.2811,-0.461 0.4216,-0.6911 0.1406,-0.2302 0.2811,-0.4601 0.4217,-0.6896 0.1405,-0.2295 0.2811,-0.4586 0.4216,-0.687 0.1406,-0.2285 0.2811,-0.4564 0.4217,-0.6835 0.1405,-0.2271 0.2811,-0.4535 0.4217,-0.679 0.1405,-0.2254 0.2811,-0.4499 0.4216,-0.6734 0.1406,-0.2235 0.2811,-0.4458 0.4217,-0.667 0.1405,-0.2211 0.2811,-0.441 0.4216,-0.6595 0.1406,-0.2185 0.2811,-0.4356 0.4217,-0.6512 0.1405,-0.2155 0.2811,-0.4296 0.4216,-0.6419 0.1406,-0.2123 0.2811,-0.4229 0.4217,-0.6316 0.1405,-0.2087 0.2811,-0.4156 0.4216,-0.6205 0.1406,-0.2049 0.2811,-0.4077 0.4217,-0.6085 0.1405,-0.2007 0.2811,-0.3993 0.4216,-0.5955 0.1406,-0.1963 0.2811,-0.3903 0.4217,-0.5819 0.1405,-0.1915 0.2811,-0.3806 0.4216,-0.56718"
       title="sin(x)"
       id="path4073" />
    <path
       style="fill:none;stroke:#000000;stroke-width:0.264583px;stroke-linecap:butt;stroke-linejoin:miter;stroke-opacity:1;marker-end:url(#Arrow2Lend)"
       d="M 9.9706199,38.847 V 2.3306"
       id="path4552" />
    <path
       style="fill:none;stroke:#000000;stroke-width:0.264583px;stroke-linecap:butt;stroke-linejoin:miter;stroke-opacity:1;marker-end:url(#Arrow2Lend)"
       d="m 2.9782,20.5888 h 83.909"
       id="path4554" />
    <path
       style="fill:#000000;fill-opacity:1;stroke:#000000;stroke-width:0.270422;stroke-linecap:butt;stroke-linejoin:miter;stroke-miterlimit:4;stroke-dasharray:none;stroke-opacity:1;marker-end:url(#Arrow1Mend-1-6)"
       d="m 42.159647,11.517626 3.51747,5.567886"
       id="path24441-7" />
    <path
       style="fill:#808080;stroke:#808080;stroke-width:0.2;stroke-linecap:butt;stroke-linejoin:miter;stroke-miterlimit:4;stroke-dasharray:0.6,0.2;stroke-dashoffset:0;stroke-opacity:1"
       d="M 39.661999,12.2613 V 36.837299"
       id="path1219" />
    <path
       style="fill:#808080;stroke:#808080;stroke-width:0.2;stroke-linecap:butt;stroke-linejoin:miter;stroke-miterlimit:4;stroke-dasharray:0.6,0.2;stroke-dashoffset:0;stroke-opacity:1"
       d="M 44.932717,20.588816 V 38.847"
       id="path1219-5" />
    <path
       style="fill:#808080;stroke:#808080;stroke-width:0.2;stroke-linecap:butt;stroke-linejoin:miter;stroke-miterlimit:4;stroke-dasharray:0.6,0.2;stroke-dashoffset:0;stroke-opacity:1"
       d="M 50.2034,28.916401 V 36.8373"
       id="path1219-3" />
    <text
       xml:space="preserve"
       style="font-size:1.41111px;line-height:1.25;font-family:sans-serif;stroke-width:0.264583"
       x="82.695885"
       y="24.283411"
       id="text9096-3-2"><tspan
         sodipodi:role="line"
         id="tspan9094-56-9"
         style="font-size:1.41111px;stroke-width:0.264583"
         x="82.695885"
         y="24.283411">$\phi$</tspan></text>
    <text
       xml:space="preserve"
       style="font-size:1.41111px;line-height:1.25;font-family:sans-serif;stroke-width:0.264583"
       x="2.6261466"
       y="8.7333145"
       id="text9096-3-1"><tspan
         sodipodi:role="line"
         id="tspan9094-56-2"
         style="font-size:1.41111px;stroke-width:0.264583"
         x="2.6261466"
         y="8.7333145">$V(\phi)$</tspan></text>
    <text
       xml:space="preserve"
       style="font-size:1.41111px;line-height:1.25;font-family:sans-serif;stroke-width:0.264583"
       x="35.439293"
       y="15.042665"
       id="text9096-9"><tspan
         sodipodi:role="line"
         id="tspan9094-3"
         style="font-size:1.41111px;stroke-width:0.264583"
         x="35.439293"
         y="15.042665">$\phi_1$</tspan></text>
    <text
       xml:space="preserve"
       style="font-size:1.41111px;line-height:1.25;font-family:sans-serif;stroke-width:0.264583"
       x="41.243755"
       y="24.179838"
       id="text9096-7-6"><tspan
         sodipodi:role="line"
         id="tspan9094-5-0"
         style="font-size:1.41111px;stroke-width:0.264583"
         x="41.243755"
         y="24.179838">$\phi_s$</tspan></text>
    <text
       xml:space="preserve"
       style="font-size:1.41111px;line-height:1.25;font-family:sans-serif;stroke-width:0.264583"
       x="50.128269"
       y="26.54516"
       id="text9096-3-6"><tspan
         sodipodi:role="line"
         id="tspan9094-56-26"
         style="font-size:1.41111px;stroke-width:0.264583"
         x="50.128269"
         y="26.54516">$\phi_2$</tspan></text>
    <text
       xml:space="preserve"
       style="font-size:2.11667px;line-height:1.25;font-family:sans-serif;stroke-width:0.264583"
       x="11.088859"
       y="37.294369"
       id="text5273-23"><tspan
         sodipodi:role="line"
         id="tspan5271-7"
         style="font-size:2.11667px;stroke-width:0.264583"
         x="11.088859"
         y="37.294369">$\gamma &gt; \gamma_\text{tr}$</tspan></text>
  </g>
  <g
     inkscape:groupmode="layer"
     id="layer3"
     inkscape:label="Livello 3">
    <ellipse
       style="fill:#5599ff;fill-opacity:1;stroke:#000000;stroke-width:0.158647;stroke-miterlimit:4;stroke-dasharray:none;stroke-opacity:1"
       id="path4976-5"
       cx="44.932716"
       cy="20.588816"
       rx="0.92946988"
       ry="0.95442897" />
    <ellipse
       style="fill:#00e700;fill-opacity:1;stroke:#000000;stroke-width:0.158647;stroke-miterlimit:4;stroke-dasharray:none;stroke-opacity:1"
       id="path4976-3-5"
       cx="50.2034"
       cy="28.916401"
       rx="0.92946988"
       ry="0.95442897" />
    <ellipse
       style="fill:#e30000;fill-opacity:1;stroke:#000000;stroke-width:0.158647;stroke-miterlimit:4;stroke-dasharray:none;stroke-opacity:1"
       id="path4976-6-6"
       cx="39.661999"
       cy="12.2613"
       rx="0.92946988"
       ry="0.95442897" />
    <path
       style="fill:#000000;fill-opacity:1;stroke:#000000;stroke-width:0.249353;stroke-linecap:butt;stroke-linejoin:miter;stroke-miterlimit:4;stroke-dasharray:none;stroke-opacity:1;marker-end:url(#Arrow1Mend-1-6)"
       d="M 49.373577,33.036599 45.604936,27.625227"
       id="path24443-9" />
  </g>
</svg>
